<svg width="172" height="121" viewBox="0 0 172 121" fill="none" xmlns="http://www.w3.org/2000/svg">
<g opacity="0.4">
<path d="M83.8078 120.428L83.341 120.177C62.1557 108.83 47.757 86.4603 47.8288 60.7508C47.8647 46.1006 52.6045 32.5636 60.6118 21.5401C58.0264 20.2475 55.3693 19.0984 52.6404 18.1289C45.3512 15.5436 37.6311 14.251 29.8034 14.2869C15.4405 34.1435 12.532 61.1457 24.525 84.4136C36.3026 107.251 59.355 120.5 83.4128 120.788H83.9514C84.2028 120.788 84.4541 120.788 84.7055 120.788L84.7413 120.752C84.6695 120.752 84.5618 120.752 84.49 120.752C84.2746 120.68 84.0591 120.536 83.8078 120.428Z" fill="#ED3926"/>
</g>
<g opacity="0.4">
<path d="M152.031 37.0519C150.128 29.5473 146.932 22.4018 142.516 15.9385C131.169 15.5436 119.966 18.0211 109.876 23.084C116.663 33.0662 120.828 44.9515 121.402 57.8063C121.438 58.8476 121.474 59.9248 121.474 61.002C121.402 86.9988 106.537 109.513 84.8848 120.608C84.8489 120.68 84.7771 120.752 84.7412 120.823C109.122 121.613 133.108 109.046 145.712 86.2448C146.214 85.3112 146.717 84.3776 147.184 83.4081C154.545 68.5066 155.873 52.097 152.031 37.0519Z" fill="#ED3926"/>
</g>
<g opacity="0.4">
<path d="M85.7463 43.5869C92.2096 34.682 100.54 27.7878 109.876 23.0839C107.901 20.1754 105.711 17.4106 103.305 14.8612C98.0266 9.22377 91.7788 4.48401 84.8128 0.929199C75.1896 5.77667 66.8951 12.8863 60.6113 21.5399C70.5217 26.531 79.2112 33.9997 85.7463 43.5869Z" fill="#ED3926"/>
</g>
<g opacity="0.6">
<path d="M83.3406 120.177L83.8074 120.428C84.0229 120.536 84.2742 120.68 84.4897 120.787C84.3461 120.572 84.2024 120.357 84.0588 120.141L83.7715 119.71C70.6654 99.5663 68.8341 73.0309 81.2939 50.553C82.6584 48.1113 84.1665 45.8133 85.7464 43.6229C79.2113 34.0357 70.4859 26.567 60.6473 21.5759C52.64 32.5994 47.9003 46.1364 47.8644 60.7866C47.7566 86.4602 62.1554 108.83 83.3406 120.177Z" fill="#ED3926"/>
</g>
<g opacity="0.6">
<path d="M85.7465 43.587C86.716 44.9874 87.6137 46.4237 88.4755 47.9318C89.0141 48.8294 89.5168 49.763 90.0195 50.7325C101.941 73.8926 99.104 100.787 84.8848 120.608C106.537 109.513 121.402 87.0347 121.474 61.002C121.474 59.9248 121.438 58.8834 121.402 57.8062C120.828 44.9874 116.663 33.0662 109.876 23.084C100.54 27.7878 92.2098 34.682 85.7465 43.587Z" fill="#ED3926"/>
</g>
<path d="M90.0191 50.6966C89.5164 49.763 89.0137 48.8294 88.4751 47.8958C87.6133 46.3877 86.6798 44.9514 85.7462 43.551C84.1304 45.7414 82.6582 48.0394 81.2937 50.4811C68.8339 72.959 70.7011 99.4944 83.7713 119.638L84.0585 120.069C84.2021 120.285 84.3458 120.5 84.4894 120.716C84.6331 120.644 84.7408 120.572 84.8844 120.5C99.1036 100.751 101.94 73.8567 90.0191 50.6966Z" fill="#ED3926"/>
<path d="M121.725 8.39783C121.725 11.6699 119.073 14.3225 115.801 14.3225C112.529 14.3225 109.876 11.6699 109.876 8.39783C109.876 5.12572 112.529 2.47314 115.801 2.47314C119.073 2.47314 121.725 5.12572 121.725 8.39783Z" fill="#127AC1"/>
<path d="M62.1912 8.39783C62.1912 11.6699 59.5386 14.3225 56.2665 14.3225C52.9944 14.3225 50.3418 11.6699 50.3418 8.39783C50.3418 5.12572 52.9944 2.47314 56.2665 2.47314C59.5386 2.47314 62.1912 5.12572 62.1912 8.39783Z" fill="#127AC1"/>
<path d="M11.8494 38.955C11.8494 42.2271 9.1968 44.8796 5.92468 44.8796C2.65257 44.8796 0 42.2271 0 38.955C0 35.6828 2.65257 33.0303 5.92468 33.0303C9.1968 33.0303 11.8494 35.6828 11.8494 38.955Z" fill="#127AC1"/>
<path d="M171.206 38.955C171.206 42.2271 168.553 44.8796 165.281 44.8796C162.009 44.8796 159.356 42.2271 159.356 38.955C159.356 35.6828 162.009 33.0303 165.281 33.0303C168.553 33.0303 171.206 35.6828 171.206 38.955Z" fill="#127AC1"/>
</svg>
